ply
format ascii 1.0
element vertex 714
property float x
property float y
property float z
element face 712
property list uint8 int32 vertex_indices
end_header
84.6746 291.032 16.6667 
100.55 303.197 16.6667 
86.4595 289.437 16.9999 
97.0015 306.433 16.9999 
89.1095 288.451 17.3317 
92.2438 308.204 17.3317 
91.1568 288.454 17.6589 
87.7566 308.163 17.6589 
91.959 288.675 17.9763 
84.1945 307.106 17.9763 
91.788 288.576 18.2777 
81.2979 305.604 18.2777 
90.9684 288.003 18.5564 
78.7543 303.84 18.5564 
89.717 286.956 18.805 
76.3591 301.841 18.805 
88.1545 285.471 19.0168 
74.0037 299.604 19.0168 
86.3566 283.589 19.1855 
71.6249 297.116 19.1855 
84.3657 281.343 19.306 
69.1921 294.373 19.306 
82.2099 278.762 19.3746 
66.6896 291.377 19.3746 
79.8983 275.856 19.3891 
64.1206 288.147 19.3891 
77.4612 272.664 19.3493 
61.4667 284.672 19.3493 
74.9067 269.203 19.2565 
58.7323 280.967 19.2565 
72.2449 265.49 19.1143 
55.9193 277.043 19.1143 
69.4819 261.539 18.9277 
53.0338 272.917 18.9277 
66.6329 257.376 18.7034 
50.073 268.591 18.7034 
63.695 253.003 18.4497 
47.0517 264.094 18.4497 
60.685 248.449 18.1757 
43.9655 259.425 18.1757 
57.6102 243.732 17.8913 
40.8192 254.597 17.8913 
54.47 238.854 17.6069 
37.6256 249.637 17.6069 
51.2758 233.839 17.3328 
34.3856 244.55 17.3328 
48.0367 228.707 17.0789 
31.1021 239.347 17.0789 
44.7556 223.466 16.8542 
27.7846 234.049 16.8542 
41.4385 218.132 16.6667 
24.4392 228.669 16.6667 
38.0932 212.721 16.5227 
21.0702 223.22 16.5227 
34.7247 207.248 16.4271 
17.6851 217.719 16.4271 
31.3442 201.734 16.3825 
14.2844 212.172 16.3825 
27.95 196.181 16.3896 
10.8825 206.608 16.3896 
24.5538 190.615 16.4468 
7.47959 201.03 16.4468 
21.1615 185.049 16.5507 
4.08208 195.455 16.5507 
17.7765 179.493 16.6955 
0.698718 189.902 16.6955 
14.4071 173.967 16.8739 
-2.66654 184.383 16.8739 
11.058 168.482 17.0769 
-6.00641 178.913 17.0769 
7.7348 163.052 17.2945 
-9.31399 173.508 17.2945 
4.4473 157.699 17.5156 
-12.5871 168.179 17.5156 
1.19639 152.428 17.729 
-15.8143 162.946 17.729 
-2.01144 147.256 17.9235 
-18.99 157.826 17.9235 
-5.16817 142.199 18.0886 
-22.11 152.828 18.0886 
-8.26657 137.276 18.2147 
-25.1693 147.967 18.2147 
-11.3052 132.493 18.2938 
-28.1571 143.264 18.2938 
-14.2751 127.87 18.3198 
-31.0703 138.729 18.3198 
-17.175 123.415 18.2886 
-33.8979 134.385 18.2886 
-19.9964 119.145 18.1988 
-36.6362 130.241 18.1988 
-22.7351 115.075 18.0514 
-39.2771 126.316 18.0514 
-25.3935 111.206 17.8501 
-41.8063 122.635 17.8501 
-27.9616 107.562 17.6012 
-44.2215 119.207 17.6012 
-30.4326 104.157 17.3133 
-46.5169 116.044 17.3133 
-32.8153 100.99 16.9974 
-48.6721 113.179 16.9974 
-35.1099 98.0707 16.6667 
-50.6743 110.63 16.6667 
-35.1061 98.0754 16.6667 
-50.6782 110.626 16.6667 
-37.279 95.424 16.3359 
-52.6465 108.224 16.3359 
-39.4262 92.8897 16.0205 
-54.5785 105.944 16.0205 
-41.5473 90.4694 15.7342 
-56.4753 103.779 15.7342 
-43.644 88.1576 15.4895 
-58.3363 101.727 15.4895 
-45.7093 85.9582 15.2972 
-60.169 99.7754 15.2972 
-47.7492 83.8604 15.1658 
-61.9682 97.9253 15.1658 
-49.7649 81.8595 15.1019 
-63.7335 96.1731 15.1019 
-51.7607 79.9477 15.1097 
-65.4614 94.5179 15.1097 
-53.7246 78.1325 15.191 
-67.1647 92.9434 15.191 
-55.662 76.4044 15.3452 
-68.8386 91.4502 15.3452 
-57.5685 74.7632 15.5694 
-70.4885 90.0299 15.5694 
-59.4549 73.1954 15.8582 
-72.1042 88.6872 15.8582 
-61.314 71.7031 16.2044 
-73.6936 87.4113 16.2044 
-63.1408 70.286 16.5991 
-75.2628 86.1937 16.5991 
-64.934 68.94 17.0316 
-76.8134 85.0297 17.0316 
-66.6983 67.6573 17.4903 
-78.3418 83.9186 17.4903 
-68.4309 66.4353 17.963 
-79.8515 82.8539 17.963 
-70.1415 65.2629 18.437 
-81.3336 81.8381 18.437 
-71.8103 64.1489 18.8996 
-82.8084 80.8535 18.8996 
-73.4382 63.088 19.3387 
-84.2762 79.8969 19.3387 
-75.041 62.0652 19.743 
-85.7217 78.9745 19.743 
-76.6 61.0879 20.1024 
-87.1643 78.0701 20.1024 
-78.1225 60.1468 20.4082 
-88.5977 77.1841 20.4082 
-79.6076 59.238 20.6535 
-90.0233 76.3118 20.6535 
-81.0591 58.355 20.8333 
-91.4383 75.451 20.8333 
-82.4663 57.4999 20.9445 
-92.8541 74.5907 20.9445 
-83.8301 56.6681 20.9862 
-94.2705 73.7268 20.9862 
-85.1597 55.8501 20.9595 
-95.6791 72.8601 20.9595 
-86.4425 55.0498 20.8673 
-97.0933 71.9779 20.8673 
-87.6911 54.2559 20.7147 
-98.5012 71.0827 20.7147 
-88.8952 53.4717 20.5081 
-99.914 70.1626 20.5081 
-90.0572 52.6927 20.2554 
-101.33 69.2131 20.2554 
-91.1934 51.9048 19.9655 
-102.733 68.2397 19.9655 
-92.2912 51.114 19.6482 
-104.138 67.2277 19.6482 
-93.3511 50.3174 19.3136 
-105.544 66.1711 19.3136 
-94.3811 49.5071 18.9716 
-106.944 65.0693 18.9716 
-95.388 48.6748 18.6321 
-108.332 63.9215 18.6321 
-96.378 47.8121 18.304 
-109.702 62.7275 18.304 
-97.3382 46.9278 17.9955 
-111.069 61.4698 17.9955 
-98.2718 46.0175 17.7132 
-112.429 60.1442 17.7132 
-99.202 45.0553 17.4626 
-113.761 58.7675 17.4626 
-100.102 44.0665 17.2471 
-115.092 57.3058 17.2471 
-101.008 43.0077 17.0685 
-116.387 55.7937 17.0685 
-101.895 41.9031 16.9271 
-117.67 54.1984 16.9271 
-102.781 40.7302 16.8212 
-118.926 52.5336 16.8212 
-103.672 39.471 16.7474 
-120.148 50.8083 16.7474 
-104.552 38.1455 16.7013 
-121.354 48.994 16.7013 
-105.425 36.7445 16.6771 
-122.541 47.0912 16.6771 
-106.3 35.2489 16.668 
-123.7 45.11 16.668 
-107.178 33.6483 16.6667 
-124.83 43.0523 16.6667 
-107.176 33.6528 16.6667 
-124.832 43.0476 16.6667 
-108.289 31.6058 16.6666 
-125.781 41.3031 16.6666 
-109.454 29.5416 16.6663 
-126.8 39.4985 16.6663 
-110.666 27.4617 16.6646 
-127.886 37.6342 16.6646 
-111.918 25.3666 16.66 
-129.035 35.712 16.66 
-113.208 23.2524 16.6503 
-130.239 33.738 16.6503 
-114.527 21.124 16.6324 
-131.496 31.709 16.6324 
-115.871 18.9804 16.6026 
-132.801 29.6284 16.6026 
-117.245 16.8053 16.5564 
-134.136 27.5146 16.5564 
-118.63 14.6235 16.4891 
-135.514 25.3448 16.4891 
-120.032 12.4167 16.3953 
-136.915 23.1394 16.3953 
-121.441 10.196 16.27 
-138.342 20.8894 16.27 
-122.849 7.96339 16.1082 
-139.789 18.595 16.1082 
-124.264 5.70228 15.9053 
-141.241 16.2748 15.9053 
-125.667 3.43374 15.658 
-142.704 13.9098 15.658 
-127.062 1.14703 15.3637 
-144.166 11.5129 15.3637 
-128.434 -1.14071 15.0213 
-145.632 9.06912 15.0213 
-129.789 -3.44669 14.6314 
-147.084 6.59766 14.6314 
-131.12 -5.76642 14.1961 
-148.519 4.09616 14.1961 
-132.415 -8.08586 13.7193 
-149.939 1.55269 13.7193 
-133.676 -10.4153 13.2068 
-151.332 -1.02038 13.2068 
-134.896 -12.7489 12.666 
-152.695 -3.62677 12.666 
-136.075 -15.0921 12.1059 
-154.018 -6.259 12.1059 
-137.2 -17.432 11.5366 
-155.302 -8.92776 11.5366 
-138.271 -19.7707 10.9695 
-156.539 -11.6289 10.9695 
-139.284 -22.1081 10.4167 
-157.722 -14.3605 10.4167 
-140.232 -24.4387 9.89035 
-158.847 -17.1259 9.89035 
-141.112 -26.7636 9.40291 
-159.906 -19.9218 9.40291 
-141.923 -29.0842 8.96623 
-160.892 -22.7448 8.96623 
-142.658 -31.3923 8.59134 
-161.801 -25.6011 8.59134 
-143.311 -33.6793 8.28811 
-162.628 -28.4971 8.28811 
-143.884 -35.9609 8.06484 
-163.361 -31.4149 8.06484 
-144.369 -38.2152 7.92803 
-163.997 -34.3745 7.92803 
-144.77 -40.4686 7.88215 
-164.525 -37.3474 7.88215 
-145.078 -42.701 7.92946 
-164.939 -40.3513 7.92946 
-145.291 -44.896 8.06999 
-165.235 -43.4008 8.06999 
-145.409 -47.0837 8.30151 
-165.4 -46.4636 8.30151 
-145.429 -49.261 8.61965 
-165.427 -49.5408 8.61965 
-145.348 -51.4218 9.01808 
-165.311 -52.6363 9.01808 
-145.163 -53.5603 9.48878 
-165.042 -55.7537 9.48878 
-144.873 -55.6777 10.0224 
-164.613 -58.8899 10.0224 
-144.471 -57.7951 10.6085 
-164.019 -62.0216 10.6085 
-143.954 -59.9059 11.2362 
-163.253 -65.1534 11.2362 
-143.32 -62.0059 11.8947 
-162.308 -68.2872 11.8947 
-142.559 -64.1116 12.5734 
-161.182 -71.4046 12.5734 
-141.667 -66.2207 13.2628 
-159.87 -74.5057 13.2628 
-140.626 -68.3553 13.955 
-158.379 -77.5664 13.955 
-139.445 -70.4847 14.6437 
-156.69 -80.6152 14.6437 
-138.111 -72.6241 15.3253 
-154.807 -83.6348 15.3253 
-136.603 -74.7895 15.9988 
-152.738 -86.6071 15.9988 
-134.926 -76.9636 16.6667 
-150.471 -89.5473 16.6667 
-134.931 -76.9578 16.6667 
-150.466 -89.5533 16.6667 
-132.972 -79.2868 17.3332 
-148.055 -92.4208 17.3332 
-130.759 -81.7506 17.9984 
-145.437 -95.3352 17.9984 
-128.305 -84.33 18.6587 
-142.612 -98.3046 18.6587 
-125.615 -87.0194 19.3089 
-139.593 -101.324 19.3089 
-122.707 -89.8015 19.9421 
-136.379 -104.399 19.9421 
-119.583 -92.6734 20.5499 
-132.982 -107.522 20.5499 
-116.262 -95.6193 21.1233 
-129.401 -110.698 21.1233 
-112.742 -98.6407 21.6525 
-125.654 -113.914 21.6525 
-109.045 -101.719 22.1275 
-121.735 -117.178 22.1275 
-105.176 -104.851 22.5387 
-117.655 -120.481 22.5387 
-101.14 -108.035 22.8769 
-113.426 -123.816 22.8769 
-96.9472 -111.261 23.1341 
-109.053 -127.181 23.1341 
-92.6095 -114.521 23.3035 
-104.542 -130.571 23.3035 
-88.1358 -117.809 23.3801 
-99.8986 -133.984 23.3801 
-83.5336 -121.12 23.3607 
-95.1325 -137.413 23.3607 
-78.8122 -124.447 23.2446 
-90.2506 -140.853 23.2446 
-73.9783 -127.786 23.0328 
-85.2622 -144.299 23.0328 
-69.0364 -131.134 22.7291 
-80.1793 -147.742 22.7291 
-64.003 -134.478 22.3391 
-75.0016 -151.182 22.3391 
-58.8853 -137.815 21.8708 
-69.7381 -154.615 21.8708 
-53.6918 -141.139 21.3341 
-64.3966 -158.033 21.3341 
-48.4262 -144.446 20.7404 
-58.9897 -161.429 20.7404 
-43.0973 -147.732 20.1026 
-53.5248 -164.798 20.1026 
-37.7205 -150.985 19.4343 
-48.0027 -168.14 19.4343 
-32.2993 -154.204 18.75 
-42.4364 -171.444 18.75 
-26.8442 -157.381 18.0641 
-36.8314 -174.709 18.0641 
-21.3595 -160.513 17.3908 
-31.1999 -177.925 17.3908 
-15.8557 -163.594 16.7437 
-25.5474 -181.089 16.7437 
-10.3408 -166.617 16.1351 
-19.8823 -184.195 16.1351 
-4.83196 -169.574 15.5761 
-14.2038 -187.242 15.5761 
0.678093 -172.465 15.0761 
-8.53528 -190.217 15.0761 
6.16632 -175.279 14.6427 
-2.87001 -193.121 14.6427 
11.6324 -178.014 14.2811 
2.77601 -195.946 14.2811 
17.0647 -180.662 13.9948 
8.39832 -198.687 13.9948 
22.4547 -183.219 13.785 
13.989 -201.339 13.785 
27.7972 -185.68 13.651 
19.5371 -203.895 13.651 
33.0754 -188.036 13.5901 
25.0431 -206.352 13.5901 
38.2978 -190.289 13.5982 
30.4821 -208.699 13.5982 
43.4296 -192.423 13.6696 
35.8729 -210.94 13.6696 
48.4743 -194.437 13.7977 
41.1956 -213.065 13.7977 
53.4302 -196.328 13.9754 
46.4358 -215.065 13.9754 
58.2687 -198.085 14.1949 
51.6054 -216.943 14.1949 
63.0035 -199.711 14.4487 
56.6749 -218.683 14.4487 
67.5981 -201.19 14.7295 
61.6645 -220.289 14.7295 
72.0591 -202.524 15.0306 
66.551 -221.75 15.0306 
76.3835 -203.709 15.346 
71.3216 -223.058 15.346 
80.5427 -204.736 15.6707 
75.9882 -224.211 15.6707 
84.5096 -205.598 16.0008 
80.5618 -225.205 16.0008 
88.3043 -206.299 16.3334 
85.0061 -226.025 16.3334 
91.9006 -206.833 16.6667 
89.3311 -226.667 16.6667 
91.891 -206.832 16.6667 
89.3409 -226.668 16.6667 
95.4149 -207.212 17 
93.6539 -227.135 17 
99.0208 -207.46 17.3325 
98.0358 -227.435 17.3325 
102.731 -207.577 17.6627 
102.45 -227.575 17.6627 
106.519 -207.564 17.9876 
106.911 -227.561 17.9876 
110.371 -207.425 18.3038 
111.418 -227.398 18.3038 
114.297 -207.161 18.6068 
115.946 -227.093 18.6068 
118.285 -206.775 18.8915 
120.496 -226.652 18.8915 
122.313 -206.27 19.1525 
125.074 -226.078 19.1525 
126.386 -205.648 19.384 
129.662 -225.378 19.384 
130.491 -204.914 19.5803 
134.261 -224.555 19.5803 
134.623 -204.07 19.7358 
138.86 -223.615 19.7358 
138.765 -203.121 19.8453 
143.463 -222.561 19.8453 
142.93 -202.066 19.9044 
148.044 -221.402 19.9044 
147.084 -200.917 19.9097 
152.624 -220.134 19.9097 
151.234 -199.672 19.8586 
157.181 -218.767 19.8586 
155.37 -198.336 19.7499 
161.711 -217.304 19.7499 
159.48 -196.915 19.5839 
166.214 -215.747 19.5839 
163.569 -195.408 19.3621 
170.669 -214.105 19.3621 
167.618 -193.823 19.0877 
175.084 -212.378 19.0877 
171.617 -192.167 18.7649 
179.454 -210.567 18.7649 
175.565 -190.44 18.3997 
183.766 -208.681 18.3997 
179.461 -188.643 17.9989 
188.008 -206.725 17.9989 
183.276 -186.791 17.5706 
192.195 -204.693 17.5706 
187.024 -184.879 17.1234 
196.3 -202.598 17.1234 
190.699 -182.91 16.6667 
200.315 -200.447 16.6667 
194.266 -180.902 16.2099 
204.26 -198.226 16.2099 
197.746 -178.846 15.7628 
208.103 -195.955 15.7628 
201.115 -176.755 15.3344 
211.852 -193.629 15.3344 
204.372 -174.631 14.9337 
215.495 -191.252 14.9337 
207.512 -172.476 14.5684 
219.024 -188.831 14.5684 
210.516 -170.306 14.2457 
222.444 -186.359 14.2457 
213.394 -168.111 13.9712 
225.732 -183.852 13.9712 
216.116 -165.916 13.7494 
228.902 -181.296 13.7494 
218.704 -163.704 13.5834 
231.922 -178.713 13.5834 
221.109 -161.515 13.4748 
234.823 -176.073 13.4748 
223.363 -159.324 13.4237 
237.563 -173.408 13.4237 
225.444 -157.151 13.4289 
240.149 -170.707 13.4289 
227.346 -155.003 13.488 
242.574 -167.969 13.488 
229.058 -152.895 13.5976 
244.833 -165.189 13.5976 
230.556 -150.865 13.753 
246.94 -162.336 13.753 
231.878 -148.868 13.9493 
248.84 -159.464 13.9493 
232.988 -146.964 14.1808 
250.558 -156.519 14.1808 
233.904 -145.137 14.4418 
252.059 -153.527 14.4418 
234.614 -143.436 14.7265 
253.345 -150.447 14.7265 
235.143 -141.832 15.0295 
254.376 -147.315 15.0295 
235.493 -140.35 15.3457 
255.135 -144.115 15.3457 
235.679 -139.014 15.6707 
255.596 -140.83 15.6707 
235.723 -137.804 16.0008 
255.72 -137.487 16.0008 
235.641 -136.672 16.3334 
255.481 -134.145 16.3334 
235.444 -135.631 16.6667 
254.851 -130.797 16.6667 
235.446 -135.637 16.6667 
254.85 -130.791 16.6667 
235.237 -135.035 16.9975 
253.584 -127.074 16.9975 
234.769 -134.148 17.3141 
251.815 -123.686 17.3141 
233.961 -133.001 17.6051 
249.652 -120.599 17.6051 
232.762 -131.63 17.8621 
247.179 -117.768 17.8621 
231.151 -130.085 18.0797 
244.444 -115.141 18.0797 
229.151 -128.421 18.2553 
241.457 -112.655 18.2553 
226.778 -126.67 18.389 
238.231 -110.274 18.389 
224.044 -124.849 18.4838 
234.783 -107.977 18.4838 
220.986 -122.981 18.5446 
231.108 -105.732 18.5446 
217.614 -121.071 18.5785 
227.224 -103.531 18.5785 
213.961 -119.131 18.5938 
223.131 -101.357 18.5938 
210.039 -117.16 18.6 
218.844 -99.203 18.6 
205.876 -115.166 18.6066 
214.368 -97.0585 18.6066 
201.489 -113.148 18.6235 
209.714 -94.9175 18.6235 
196.884 -111.1 18.6593 
204.908 -92.7804 18.6593 
192.096 -109.03 18.722 
199.944 -90.6345 18.722 
187.128 -106.931 18.8178 
194.849 -88.4814 18.8178 
182.009 -104.806 18.9509 
189.625 -86.3126 18.9509 
176.745 -102.648 19.1236 
184.295 -84.1282 19.1236 
171.359 -100.46 19.3358 
178.867 -81.9226 19.3358 
165.86 -98.2349 19.5852 
173.362 -79.6951 19.5852 
160.277 -95.9763 19.8671 
167.781 -77.4377 19.8671 
154.611 -93.6763 20.1749 
162.153 -75.1527 20.1749 
148.883 -91.334 20.5003 
156.487 -72.8356 20.5003 
143.111 -88.9472 20.8333 
150.797 -70.4831 20.8333 
137.309 -86.5138 21.1632 
145.096 -68.092 21.1632 
131.486 -84.0275 21.4785 
139.407 -65.6632 21.4785 
125.664 -81.4886 21.7678 
133.739 -63.1908 21.7678 
119.854 -78.8919 22.0199 
128.109 -60.6747 22.0199 
114.074 -76.2354 22.2248 
122.531 -58.1115 22.2248 
108.336 -73.5151 22.3736 
117.022 -55.4997 22.3736 
102.655 -70.727 22.4592 
111.598 -52.8378 22.4592 
97.045 -67.8675 22.4768 
106.274 -50.1243 22.4768 
91.5215 -64.9329 22.4234 
101.066 -47.3571 22.4234 
86.0967 -61.9178 22.2989 
95.9907 -44.5365 22.2989 
80.787 -58.8187 22.1054 
91.0626 -41.6603 22.1054 
75.6034 -55.6288 21.8472 
86.3007 -38.73 21.8472 
70.5636 -52.3448 21.5312 
81.7172 -35.7436 21.5312 
65.6805 -48.9596 21.1658 
77.3298 -32.7025 21.1658 
60.9697 -45.4679 20.7611 
73.1527 -29.6069 20.7611 
56.443 -41.8603 20.3279 
69.2043 -26.4606 20.3279 
52.1192 -38.1315 19.8778 
65.4961 -23.2635 19.8778 
48.0133 -34.2726 19.4218 
62.0431 -20.019 19.4218 
44.1411 -30.2733 18.9704 
58.8596 -16.7321 18.9704 
40.5237 -26.1271 18.5323 
55.9549 -13.4039 18.5323 
37.1783 -21.821 18.1144 
53.3416 -10.0419 18.1144 
34.1293 -17.3484 17.7205 
51.0256 -6.64726 17.7205 
31.407 -12.7118 17.351 
49.0069 -3.21214 17.351 
29.0316 -7.89646 17.0024 
47.2954 0.25425 17.0024 
27.0353 -2.90968 16.6667 
45.8888 3.76452 16.6667 
27.0354 -2.90995 16.6667 
45.8887 3.76498 16.6667 
25.421 2.29875 16.3309 
44.7372 7.48384 16.3309 
24.1617 7.73628 15.9815 
43.7859 11.595 15.9815 
23.226 13.3894 15.6089 
43.0441 16.0803 15.6089 
22.5866 19.2521 15.2069 
42.5174 20.9146 15.2069 
22.2209 25.3149 14.7727 
42.2064 26.0758 14.7727 
22.109 31.5707 14.3065 
42.109 31.54 14.3065 
22.2339 38.0124 13.8111 
42.2206 37.2827 13.8111 
22.58 44.631 13.2916 
42.5345 43.2817 13.2916 
23.1332 51.4138 12.7546 
43.0432 49.5185 12.7546 
23.8801 58.3511 12.2085 
43.738 55.9712 12.2085 
24.8081 65.4315 11.6623 
44.6096 62.6201 11.6623 
25.9054 72.6438 11.1257 
45.648 69.4451 11.1257 
27.16 79.9745 10.6085 
46.8431 76.4281 10.6085 
28.5603 87.4094 10.1201 
48.1849 83.5524 10.1201 
30.0948 94.9346 9.66957 
49.6627 90.8001 9.66957 
31.7523 102.537 9.26482 
51.2659 98.1532 9.26482 
33.522 110.204 8.91271 
52.9833 105.593 8.91271 
35.3926 117.919 8.61872 
54.8045 113.105 8.61872 
37.3528 125.668 8.38688 
56.7187 120.672 8.38688 
39.3916 133.436 8.21963 
58.715 128.277 8.21963 
41.4984 141.208 8.11788 
60.7822 135.904 8.11788 
43.662 148.97 8.08101 
62.9095 143.536 8.08101 
45.8713 156.706 8.10701 
65.086 151.157 8.10701 
48.1154 164.401 8.19258 
67.301 158.752 8.19258 
50.3832 172.039 8.33333 
69.5433 166.304 8.33333 
52.6638 179.605 8.52404 
71.8021 173.797 8.52404 
54.9463 187.083 8.75881 
74.0664 181.216 8.75881 
57.2193 194.458 9.03135 
76.3257 188.546 9.03135 
59.4725 201.715 9.33524 
78.5683 195.769 9.33524 
61.6943 208.837 9.66411 
80.7839 202.871 9.66411 
63.8732 215.806 10.0119 
82.9621 209.838 10.0119 
65.999 222.61 10.3729 
85.0913 216.653 10.3729 
68.06 229.23 10.7422 
87.1611 223.301 10.7422 
70.045 235.65 11.1155 
89.1609 229.769 11.1155 
71.9435 241.855 11.4894 
91.0793 236.039 11.4894 
73.7434 247.825 11.8611 
92.9063 242.1 11.8611 
75.4334 253.544 12.2287 
94.6316 247.937 12.2287 
77.002 258.991 12.5913 
96.2446 253.539 12.5913 
78.4381 264.15 12.9483 
97.7345 258.892 12.9483 
79.7304 269.002 13.2998 
99.0908 263.984 13.2998 
80.8671 273.522 13.6463 
100.303 268.806 13.6463 
81.8362 277.684 13.9886 
101.362 273.355 13.9886 
82.6272 281.462 14.3275 
102.256 277.625 14.3275 
83.2289 284.814 14.6641 
102.973 281.627 14.6641 
83.635 287.696 14.999 
103.5 285.373 14.999 
83.8454 290.041 15.333 
103.813 288.899 15.333 
83.8791 291.74 15.6666 
103.872 292.283 15.6666 
83.8138 292.609 16 
103.577 295.677 16 
83.877 292.44 16.3333 
102.679 299.259 16.3333 
84.6561 291.056 16.6667 
100.568 303.172 16.6667 
3 0 1 2 
3 1 3 2 
3 2 3 4 
3 3 5 4 
3 4 5 6 
3 5 7 6 
3 6 7 8 
3 7 9 8 
3 8 9 10 
3 9 11 10 
3 10 11 12 
3 11 13 12 
3 12 13 14 
3 13 15 14 
3 14 15 16 
3 15 17 16 
3 16 17 18 
3 17 19 18 
3 18 19 20 
3 19 21 20 
3 20 21 22 
3 21 23 22 
3 22 23 24 
3 23 25 24 
3 24 25 26 
3 25 27 26 
3 26 27 28 
3 27 29 28 
3 28 29 30 
3 29 31 30 
3 30 31 32 
3 31 33 32 
3 32 33 34 
3 33 35 34 
3 34 35 36 
3 35 37 36 
3 36 37 38 
3 37 39 38 
3 38 39 40 
3 39 41 40 
3 40 41 42 
3 41 43 42 
3 42 43 44 
3 43 45 44 
3 44 45 46 
3 45 47 46 
3 46 47 48 
3 47 49 48 
3 48 49 50 
3 49 51 50 
3 50 51 52 
3 51 53 52 
3 52 53 54 
3 53 55 54 
3 54 55 56 
3 55 57 56 
3 56 57 58 
3 57 59 58 
3 58 59 60 
3 59 61 60 
3 60 61 62 
3 61 63 62 
3 62 63 64 
3 63 65 64 
3 64 65 66 
3 65 67 66 
3 66 67 68 
3 67 69 68 
3 68 69 70 
3 69 71 70 
3 70 71 72 
3 71 73 72 
3 72 73 74 
3 73 75 74 
3 74 75 76 
3 75 77 76 
3 76 77 78 
3 77 79 78 
3 78 79 80 
3 79 81 80 
3 80 81 82 
3 81 83 82 
3 82 83 84 
3 83 85 84 
3 84 85 86 
3 85 87 86 
3 86 87 88 
3 87 89 88 
3 88 89 90 
3 89 91 90 
3 90 91 92 
3 91 93 92 
3 92 93 94 
3 93 95 94 
3 94 95 96 
3 95 97 96 
3 96 97 98 
3 97 99 98 
3 98 99 100 
3 99 101 100 
3 100 101 102 
3 101 103 102 
3 102 103 104 
3 103 105 104 
3 104 105 106 
3 105 107 106 
3 106 107 108 
3 107 109 108 
3 108 109 110 
3 109 111 110 
3 110 111 112 
3 111 113 112 
3 112 113 114 
3 113 115 114 
3 114 115 116 
3 115 117 116 
3 116 117 118 
3 117 119 118 
3 118 119 120 
3 119 121 120 
3 120 121 122 
3 121 123 122 
3 122 123 124 
3 123 125 124 
3 124 125 126 
3 125 127 126 
3 126 127 128 
3 127 129 128 
3 128 129 130 
3 129 131 130 
3 130 131 132 
3 131 133 132 
3 132 133 134 
3 133 135 134 
3 134 135 136 
3 135 137 136 
3 136 137 138 
3 137 139 138 
3 138 139 140 
3 139 141 140 
3 140 141 142 
3 141 143 142 
3 142 143 144 
3 143 145 144 
3 144 145 146 
3 145 147 146 
3 146 147 148 
3 147 149 148 
3 148 149 150 
3 149 151 150 
3 150 151 152 
3 151 153 152 
3 152 153 154 
3 153 155 154 
3 154 155 156 
3 155 157 156 
3 156 157 158 
3 157 159 158 
3 158 159 160 
3 159 161 160 
3 160 161 162 
3 161 163 162 
3 162 163 164 
3 163 165 164 
3 164 165 166 
3 165 167 166 
3 166 167 168 
3 167 169 168 
3 168 169 170 
3 169 171 170 
3 170 171 172 
3 171 173 172 
3 172 173 174 
3 173 175 174 
3 174 175 176 
3 175 177 176 
3 176 177 178 
3 177 179 178 
3 178 179 180 
3 179 181 180 
3 180 181 182 
3 181 183 182 
3 182 183 184 
3 183 185 184 
3 184 185 186 
3 185 187 186 
3 186 187 188 
3 187 189 188 
3 188 189 190 
3 189 191 190 
3 190 191 192 
3 191 193 192 
3 192 193 194 
3 193 195 194 
3 194 195 196 
3 195 197 196 
3 196 197 198 
3 197 199 198 
3 198 199 200 
3 199 201 200 
3 200 201 202 
3 201 203 202 
3 202 203 204 
3 203 205 204 
3 204 205 206 
3 205 207 206 
3 206 207 208 
3 207 209 208 
3 208 209 210 
3 209 211 210 
3 210 211 212 
3 211 213 212 
3 212 213 214 
3 213 215 214 
3 214 215 216 
3 215 217 216 
3 216 217 218 
3 217 219 218 
3 218 219 220 
3 219 221 220 
3 220 221 222 
3 221 223 222 
3 222 223 224 
3 223 225 224 
3 224 225 226 
3 225 227 226 
3 226 227 228 
3 227 229 228 
3 228 229 230 
3 229 231 230 
3 230 231 232 
3 231 233 232 
3 232 233 234 
3 233 235 234 
3 234 235 236 
3 235 237 236 
3 236 237 238 
3 237 239 238 
3 238 239 240 
3 239 241 240 
3 240 241 242 
3 241 243 242 
3 242 243 244 
3 243 245 244 
3 244 245 246 
3 245 247 246 
3 246 247 248 
3 247 249 248 
3 248 249 250 
3 249 251 250 
3 250 251 252 
3 251 253 252 
3 252 253 254 
3 253 255 254 
3 254 255 256 
3 255 257 256 
3 256 257 258 
3 257 259 258 
3 258 259 260 
3 259 261 260 
3 260 261 262 
3 261 263 262 
3 262 263 264 
3 263 265 264 
3 264 265 266 
3 265 267 266 
3 266 267 268 
3 267 269 268 
3 268 269 270 
3 269 271 270 
3 270 271 272 
3 271 273 272 
3 272 273 274 
3 273 275 274 
3 274 275 276 
3 275 277 276 
3 276 277 278 
3 277 279 278 
3 278 279 280 
3 279 281 280 
3 280 281 282 
3 281 283 282 
3 282 283 284 
3 283 285 284 
3 284 285 286 
3 285 287 286 
3 286 287 288 
3 287 289 288 
3 288 289 290 
3 289 291 290 
3 290 291 292 
3 291 293 292 
3 292 293 294 
3 293 295 294 
3 294 295 296 
3 295 297 296 
3 296 297 298 
3 297 299 298 
3 298 299 300 
3 299 301 300 
3 300 301 302 
3 301 303 302 
3 302 303 304 
3 303 305 304 
3 304 305 306 
3 305 307 306 
3 306 307 308 
3 307 309 308 
3 308 309 310 
3 309 311 310 
3 310 311 312 
3 311 313 312 
3 312 313 314 
3 313 315 314 
3 314 315 316 
3 315 317 316 
3 316 317 318 
3 317 319 318 
3 318 319 320 
3 319 321 320 
3 320 321 322 
3 321 323 322 
3 322 323 324 
3 323 325 324 
3 324 325 326 
3 325 327 326 
3 326 327 328 
3 327 329 328 
3 328 329 330 
3 329 331 330 
3 330 331 332 
3 331 333 332 
3 332 333 334 
3 333 335 334 
3 334 335 336 
3 335 337 336 
3 336 337 338 
3 337 339 338 
3 338 339 340 
3 339 341 340 
3 340 341 342 
3 341 343 342 
3 342 343 344 
3 343 345 344 
3 344 345 346 
3 345 347 346 
3 346 347 348 
3 347 349 348 
3 348 349 350 
3 349 351 350 
3 350 351 352 
3 351 353 352 
3 352 353 354 
3 353 355 354 
3 354 355 356 
3 355 357 356 
3 356 357 358 
3 357 359 358 
3 358 359 360 
3 359 361 360 
3 360 361 362 
3 361 363 362 
3 362 363 364 
3 363 365 364 
3 364 365 366 
3 365 367 366 
3 366 367 368 
3 367 369 368 
3 368 369 370 
3 369 371 370 
3 370 371 372 
3 371 373 372 
3 372 373 374 
3 373 375 374 
3 374 375 376 
3 375 377 376 
3 376 377 378 
3 377 379 378 
3 378 379 380 
3 379 381 380 
3 380 381 382 
3 381 383 382 
3 382 383 384 
3 383 385 384 
3 384 385 386 
3 385 387 386 
3 386 387 388 
3 387 389 388 
3 388 389 390 
3 389 391 390 
3 390 391 392 
3 391 393 392 
3 392 393 394 
3 393 395 394 
3 394 395 396 
3 395 397 396 
3 396 397 398 
3 397 399 398 
3 398 399 400 
3 399 401 400 
3 400 401 402 
3 401 403 402 
3 402 403 404 
3 403 405 404 
3 404 405 406 
3 405 407 406 
3 406 407 408 
3 407 409 408 
3 408 409 410 
3 409 411 410 
3 410 411 412 
3 411 413 412 
3 412 413 414 
3 413 415 414 
3 414 415 416 
3 415 417 416 
3 416 417 418 
3 417 419 418 
3 418 419 420 
3 419 421 420 
3 420 421 422 
3 421 423 422 
3 422 423 424 
3 423 425 424 
3 424 425 426 
3 425 427 426 
3 426 427 428 
3 427 429 428 
3 428 429 430 
3 429 431 430 
3 430 431 432 
3 431 433 432 
3 432 433 434 
3 433 435 434 
3 434 435 436 
3 435 437 436 
3 436 437 438 
3 437 439 438 
3 438 439 440 
3 439 441 440 
3 440 441 442 
3 441 443 442 
3 442 443 444 
3 443 445 444 
3 444 445 446 
3 445 447 446 
3 446 447 448 
3 447 449 448 
3 448 449 450 
3 449 451 450 
3 450 451 452 
3 451 453 452 
3 452 453 454 
3 453 455 454 
3 454 455 456 
3 455 457 456 
3 456 457 458 
3 457 459 458 
3 458 459 460 
3 459 461 460 
3 460 461 462 
3 461 463 462 
3 462 463 464 
3 463 465 464 
3 464 465 466 
3 465 467 466 
3 466 467 468 
3 467 469 468 
3 468 469 470 
3 469 471 470 
3 470 471 472 
3 471 473 472 
3 472 473 474 
3 473 475 474 
3 474 475 476 
3 475 477 476 
3 476 477 478 
3 477 479 478 
3 478 479 480 
3 479 481 480 
3 480 481 482 
3 481 483 482 
3 482 483 484 
3 483 485 484 
3 484 485 486 
3 485 487 486 
3 486 487 488 
3 487 489 488 
3 488 489 490 
3 489 491 490 
3 490 491 492 
3 491 493 492 
3 492 493 494 
3 493 495 494 
3 494 495 496 
3 495 497 496 
3 496 497 498 
3 497 499 498 
3 498 499 500 
3 499 501 500 
3 500 501 502 
3 501 503 502 
3 502 503 504 
3 503 505 504 
3 504 505 506 
3 505 507 506 
3 506 507 508 
3 507 509 508 
3 508 509 510 
3 509 511 510 
3 510 511 512 
3 511 513 512 
3 512 513 514 
3 513 515 514 
3 514 515 516 
3 515 517 516 
3 516 517 518 
3 517 519 518 
3 518 519 520 
3 519 521 520 
3 520 521 522 
3 521 523 522 
3 522 523 524 
3 523 525 524 
3 524 525 526 
3 525 527 526 
3 526 527 528 
3 527 529 528 
3 528 529 530 
3 529 531 530 
3 530 531 532 
3 531 533 532 
3 532 533 534 
3 533 535 534 
3 534 535 536 
3 535 537 536 
3 536 537 538 
3 537 539 538 
3 538 539 540 
3 539 541 540 
3 540 541 542 
3 541 543 542 
3 542 543 544 
3 543 545 544 
3 544 545 546 
3 545 547 546 
3 546 547 548 
3 547 549 548 
3 548 549 550 
3 549 551 550 
3 550 551 552 
3 551 553 552 
3 552 553 554 
3 553 555 554 
3 554 555 556 
3 555 557 556 
3 556 557 558 
3 557 559 558 
3 558 559 560 
3 559 561 560 
3 560 561 562 
3 561 563 562 
3 562 563 564 
3 563 565 564 
3 564 565 566 
3 565 567 566 
3 566 567 568 
3 567 569 568 
3 568 569 570 
3 569 571 570 
3 570 571 572 
3 571 573 572 
3 572 573 574 
3 573 575 574 
3 574 575 576 
3 575 577 576 
3 576 577 578 
3 577 579 578 
3 578 579 580 
3 579 581 580 
3 580 581 582 
3 581 583 582 
3 582 583 584 
3 583 585 584 
3 584 585 586 
3 585 587 586 
3 586 587 588 
3 587 589 588 
3 588 589 590 
3 589 591 590 
3 590 591 592 
3 591 593 592 
3 592 593 594 
3 593 595 594 
3 594 595 596 
3 595 597 596 
3 596 597 598 
3 597 599 598 
3 598 599 600 
3 599 601 600 
3 600 601 602 
3 601 603 602 
3 602 603 604 
3 603 605 604 
3 604 605 606 
3 605 607 606 
3 606 607 608 
3 607 609 608 
3 608 609 610 
3 609 611 610 
3 610 611 612 
3 611 613 612 
3 612 613 614 
3 613 615 614 
3 614 615 616 
3 615 617 616 
3 616 617 618 
3 617 619 618 
3 618 619 620 
3 619 621 620 
3 620 621 622 
3 621 623 622 
3 622 623 624 
3 623 625 624 
3 624 625 626 
3 625 627 626 
3 626 627 628 
3 627 629 628 
3 628 629 630 
3 629 631 630 
3 630 631 632 
3 631 633 632 
3 632 633 634 
3 633 635 634 
3 634 635 636 
3 635 637 636 
3 636 637 638 
3 637 639 638 
3 638 639 640 
3 639 641 640 
3 640 641 642 
3 641 643 642 
3 642 643 644 
3 643 645 644 
3 644 645 646 
3 645 647 646 
3 646 647 648 
3 647 649 648 
3 648 649 650 
3 649 651 650 
3 650 651 652 
3 651 653 652 
3 652 653 654 
3 653 655 654 
3 654 655 656 
3 655 657 656 
3 656 657 658 
3 657 659 658 
3 658 659 660 
3 659 661 660 
3 660 661 662 
3 661 663 662 
3 662 663 664 
3 663 665 664 
3 664 665 666 
3 665 667 666 
3 666 667 668 
3 667 669 668 
3 668 669 670 
3 669 671 670 
3 670 671 672 
3 671 673 672 
3 672 673 674 
3 673 675 674 
3 674 675 676 
3 675 677 676 
3 676 677 678 
3 677 679 678 
3 678 679 680 
3 679 681 680 
3 680 681 682 
3 681 683 682 
3 682 683 684 
3 683 685 684 
3 684 685 686 
3 685 687 686 
3 686 687 688 
3 687 689 688 
3 688 689 690 
3 689 691 690 
3 690 691 692 
3 691 693 692 
3 692 693 694 
3 693 695 694 
3 694 695 696 
3 695 697 696 
3 696 697 698 
3 697 699 698 
3 698 699 700 
3 699 701 700 
3 700 701 702 
3 701 703 702 
3 702 703 704 
3 703 705 704 
3 704 705 706 
3 705 707 706 
3 706 707 708 
3 707 709 708 
3 708 709 710 
3 709 711 710 
3 710 711 712 
3 711 713 712 
