ply
format ascii 1.0
element vertex 714
property float x
property float y
property float z
element face 712
property list uint8 int32 vertex_indices
end_header
84.6746 291.032 12.9682 
100.55 303.197 12.9682 
86.4595 289.437 12.9767 
97.0015 306.433 12.9767 
89.1095 288.451 12.9946 
92.2438 308.204 12.9946 
91.1568 288.454 13.0214 
87.7566 308.163 13.0214 
91.959 288.675 13.0571 
84.1945 307.106 13.0571 
91.788 288.576 13.1016 
81.2979 305.604 13.1016 
90.9684 288.003 13.1547 
78.7543 303.84 13.1547 
89.717 286.956 13.2166 
76.3591 301.841 13.2166 
88.1545 285.471 13.2873 
74.0037 299.604 13.2873 
86.3566 283.589 13.367 
71.6249 297.116 13.367 
84.3657 281.343 13.4558 
69.1921 294.373 13.4558 
82.2099 278.762 13.5539 
66.6896 291.377 13.5539 
79.8983 275.856 13.6614 
64.1206 288.147 13.6614 
77.4612 272.664 13.7784 
61.4667 284.672 13.7784 
74.9067 269.203 13.9048 
58.7323 280.967 13.9048 
72.2449 265.49 14.0406 
55.9193 277.043 14.0406 
69.4819 261.539 14.1854 
53.0338 272.917 14.1854 
66.6329 257.376 14.3386 
50.073 268.591 14.3386 
63.695 253.003 14.4995 
47.0517 264.094 14.4995 
60.685 248.449 14.6671 
43.9655 259.425 14.6671 
57.6102 243.732 14.84 
40.8192 254.597 14.84 
54.47 238.854 15.0166 
37.6256 249.637 15.0166 
51.2758 233.839 15.195 
34.3856 244.55 15.195 
48.0367 228.707 15.3732 
31.1021 239.347 15.3732 
44.7556 223.466 15.5487 
27.7846 234.049 15.5487 
41.4385 218.132 15.7192 
24.4392 228.669 15.7192 
38.0932 212.721 15.8821 
21.0702 223.22 15.8821 
34.7247 207.248 16.0351 
17.6851 217.719 16.0351 
31.3442 201.734 16.1756 
14.2844 212.172 16.1756 
27.95 196.181 16.3015 
10.8825 206.608 16.3015 
24.5538 190.615 16.4108 
7.47959 201.03 16.4108 
21.1615 185.049 16.502 
4.08208 195.455 16.502 
17.7765 179.493 16.5739 
0.698718 189.902 16.5739 
14.4071 173.967 16.6256 
-2.66654 184.383 16.6256 
11.058 168.482 16.6567 
-6.00641 178.913 16.6567 
7.7348 163.052 16.6674 
-9.31399 173.508 16.6674 
4.4473 157.699 16.658 
-12.5871 168.179 16.658 
1.19639 152.428 16.6292 
-15.8143 162.946 16.6292 
-2.01144 147.256 16.582 
-18.99 157.826 16.582 
-5.16817 142.199 16.5181 
-22.11 152.828 16.5181 
-8.26657 137.276 16.4395 
-25.1693 147.967 16.4395 
-11.3052 132.493 16.3486 
-28.1571 143.264 16.3486 
-14.2751 127.87 16.2477 
-31.0703 138.729 16.2477 
-17.175 123.415 16.1396 
-33.8979 134.385 16.1396 
-19.9964 119.145 16.0267 
-36.6362 130.241 16.0267 
-22.7351 115.075 15.9115 
-39.2771 126.316 15.9115 
-25.3935 111.206 15.7963 
-41.8063 122.635 15.7963 
-27.9616 107.562 15.6831 
-44.2215 119.207 15.6831 
-30.4326 104.157 15.5737 
-46.5169 116.044 15.5737 
-32.8153 100.99 15.4697 
-48.6721 113.179 15.4697 
-35.1099 98.0707 15.3722 
-50.6743 110.63 15.3722 
-35.1061 98.0754 15.3722 
-50.6782 110.626 15.3722 
-37.279 95.424 15.2797 
-52.6465 108.224 15.2797 
-39.4262 92.8897 15.1902 
-54.5785 105.944 15.1902 
-41.5473 90.4694 15.1038 
-56.4753 103.779 15.1038 
-43.644 88.1576 15.0208 
-58.3363 101.727 15.0208 
-45.7093 85.9582 14.9413 
-60.169 99.7754 14.9413 
-47.7492 83.8604 14.8656 
-61.9682 97.9253 14.8656 
-49.7649 81.8595 14.7936 
-63.7335 96.1731 14.7936 
-51.7607 79.9477 14.7254 
-65.4614 94.5179 14.7254 
-53.7246 78.1325 14.661 
-67.1647 92.9434 14.661 
-55.662 76.4044 14.6004 
-68.8386 91.4502 14.6004 
-57.5685 74.7632 14.5434 
-70.4885 90.0299 14.5434 
-59.4549 73.1954 14.4901 
-72.1042 88.6872 14.4901 
-61.314 71.7031 14.4403 
-73.6936 87.4113 14.4403 
-63.1408 70.286 14.3939 
-75.2628 86.1937 14.3939 
-64.934 68.94 14.3509 
-76.8134 85.0297 14.3509 
-66.6983 67.6573 14.311 
-78.3418 83.9186 14.311 
-68.4309 66.4353 14.2743 
-79.8515 82.8539 14.2743 
-70.1415 65.2629 14.2405 
-81.3336 81.8381 14.2405 
-71.8103 64.1489 14.2095 
-82.8084 80.8535 14.2095 
-73.4382 63.088 14.1813 
-84.2762 79.8969 14.1813 
-75.041 62.0652 14.1557 
-85.7217 78.9745 14.1557 
-76.6 61.0879 14.1326 
-87.1643 78.0701 14.1326 
-78.1225 60.1468 14.1119 
-88.5977 77.1841 14.1119 
-79.6076 59.238 14.0934 
-90.0233 76.3118 14.0934 
-81.0591 58.355 14.0772 
-91.4383 75.451 14.0772 
-82.4663 57.4999 14.0631 
-92.8541 74.5907 14.0631 
-83.8301 56.6681 14.051 
-94.2705 73.7268 14.051 
-85.1597 55.8501 14.0409 
-95.6791 72.8601 14.0409 
-86.4425 55.0498 14.0327 
-97.0933 71.9779 14.0327 
-87.6911 54.2559 14.0264 
-98.5012 71.0827 14.0264 
-88.8952 53.4717 14.0219 
-99.914 70.1626 14.0219 
-90.0572 52.6927 14.0192 
-101.33 69.2131 14.0192 
-91.1934 51.9048 14.0183 
-102.733 68.2397 14.0183 
-92.2912 51.114 14.0192 
-104.138 67.2277 14.0192 
-93.3511 50.3174 14.0218 
-105.544 66.1711 14.0218 
-94.3811 49.5071 14.0261 
-106.944 65.0693 14.0261 
-95.388 48.6748 14.0323 
-108.332 63.9215 14.0323 
-96.378 47.8121 14.0403 
-109.702 62.7275 14.0403 
-97.3382 46.9278 14.0502 
-111.069 61.4698 14.0502 
-98.2718 46.0175 14.062 
-112.429 60.1442 14.062 
-99.202 45.0553 14.0757 
-113.761 58.7675 14.0757 
-100.102 44.0665 14.0915 
-115.092 57.3058 14.0915 
-101.008 43.0077 14.1094 
-116.387 55.7937 14.1094 
-101.895 41.9031 14.1295 
-117.67 54.1984 14.1295 
-102.781 40.7302 14.1518 
-118.926 52.5336 14.1518 
-103.672 39.471 14.1765 
-120.148 50.8083 14.1765 
-104.552 38.1455 14.2037 
-121.354 48.994 14.2037 
-105.425 36.7445 14.2334 
-122.541 47.0912 14.2334 
-106.3 35.2489 14.2658 
-123.7 45.11 14.2658 
-107.178 33.6483 14.3009 
-124.83 43.0523 14.3009 
-107.176 33.6528 14.3009 
-124.832 43.0476 14.3009 
-108.289 31.6058 14.3392 
-125.781 41.3031 14.3392 
-109.454 29.5416 14.3813 
-126.8 39.4985 14.3813 
-110.666 27.4617 14.4272 
-127.886 37.6342 14.4272 
-111.918 25.3666 14.477 
-129.035 35.712 14.477 
-113.208 23.2524 14.5307 
-130.239 33.738 14.5307 
-114.527 21.124 14.5883 
-131.496 31.709 14.5883 
-115.871 18.9804 14.6499 
-132.801 29.6284 14.6499 
-117.245 16.8053 14.7153 
-134.136 27.5146 14.7153 
-118.63 14.6235 14.7844 
-135.514 25.3448 14.7844 
-120.032 12.4167 14.8573 
-136.915 23.1394 14.8573 
-121.441 10.196 14.9336 
-138.342 20.8894 14.9336 
-122.849 7.96339 15.0133 
-139.789 18.595 15.0133 
-124.264 5.70228 15.0961 
-141.241 16.2748 15.0961 
-125.667 3.43374 15.1819 
-142.704 13.9098 15.1819 
-127.062 1.14703 15.2704 
-144.166 11.5129 15.2704 
-128.434 -1.14071 15.3614 
-145.632 9.06912 15.3614 
-129.789 -3.44669 15.4547 
-147.084 6.59766 15.4547 
-131.12 -5.76642 15.55 
-148.519 4.09616 15.55 
-132.415 -8.08586 15.6472 
-149.939 1.55269 15.6472 
-133.676 -10.4153 15.7459 
-151.332 -1.02038 15.7459 
-134.896 -12.7489 15.8461 
-152.695 -3.62677 15.8461 
-136.075 -15.0921 15.9473 
-154.018 -6.259 15.9473 
-137.2 -17.432 16.0491 
-155.302 -8.92776 16.0491 
-138.271 -19.7707 16.1512 
-156.539 -11.6289 16.1512 
-139.284 -22.1081 16.2531 
-157.722 -14.3605 16.2531 
-140.232 -24.4387 16.3544 
-158.847 -17.1259 16.3544 
-141.112 -26.7636 16.4546 
-159.906 -19.9218 16.4546 
-141.923 -29.0842 16.553 
-160.892 -22.7448 16.553 
-142.658 -31.3923 16.6493 
-161.801 -25.6011 16.6493 
-143.311 -33.6793 16.7428 
-162.628 -28.4971 16.7428 
-143.884 -35.9609 16.833 
-163.361 -31.4149 16.833 
-144.369 -38.2152 16.9194 
-163.997 -34.3745 16.9194 
-144.77 -40.4686 17.0015 
-164.525 -37.3474 17.0015 
-145.078 -42.701 17.0786 
-164.939 -40.3513 17.0786 
-145.291 -44.896 17.1504 
-165.235 -43.4008 17.1504 
-145.409 -47.0837 17.2162 
-165.4 -46.4636 17.2162 
-145.429 -49.261 17.2758 
-165.427 -49.5408 17.2758 
-145.348 -51.4218 17.3287 
-165.311 -52.6363 17.3287 
-145.163 -53.5603 17.3744 
-165.042 -55.7537 17.3744 
-144.873 -55.6777 17.4128 
-164.613 -58.8899 17.4128 
-144.471 -57.7951 17.4434 
-164.019 -62.0216 17.4434 
-143.954 -59.9059 17.4662 
-163.253 -65.1534 17.4662 
-143.32 -62.0059 17.4809 
-162.308 -68.2872 17.4809 
-142.559 -64.1116 17.4875 
-161.182 -71.4046 17.4875 
-141.667 -66.2207 17.486 
-159.87 -74.5057 17.486 
-140.626 -68.3553 17.4764 
-158.379 -77.5664 17.4764 
-139.445 -70.4847 17.4589 
-156.69 -80.6152 17.4589 
-138.111 -72.6241 17.4338 
-154.807 -83.6348 17.4338 
-136.603 -74.7895 17.4015 
-152.738 -86.6071 17.4015 
-134.926 -76.9636 17.3623 
-150.471 -89.5473 17.3623 
-134.931 -76.9578 17.3623 
-150.466 -89.5533 17.3623 
-132.972 -79.2868 17.3171 
-148.055 -92.4208 17.3171 
-130.759 -81.7506 17.2673 
-145.437 -95.3352 17.2673 
-128.305 -84.33 17.2145 
-142.612 -98.3046 17.2145 
-125.615 -87.0194 17.1605 
-139.593 -101.324 17.1605 
-122.707 -89.8015 17.1073 
-136.379 -104.399 17.1073 
-119.583 -92.6734 17.0571 
-132.982 -107.522 17.0571 
-116.262 -95.6193 17.012 
-129.401 -110.698 17.012 
-112.742 -98.6407 16.9743 
-125.654 -113.914 16.9743 
-109.045 -101.719 16.9462 
-121.735 -117.178 16.9462 
-105.176 -104.851 16.93 
-117.655 -120.481 16.93 
-101.14 -108.035 16.9279 
-113.426 -123.816 16.9279 
-96.9472 -111.261 16.9417 
-109.053 -127.181 16.9417 
-92.6095 -114.521 16.9735 
-104.542 -130.571 16.9735 
-88.1358 -117.809 17.0248 
-99.8986 -133.984 17.0248 
-83.5336 -121.12 17.097 
-95.1325 -137.413 17.097 
-78.8122 -124.447 17.1912 
-90.2506 -140.853 17.1912 
-73.9783 -127.786 17.308 
-85.2622 -144.299 17.308 
-69.0364 -131.134 17.448 
-80.1793 -147.742 17.448 
-64.003 -134.478 17.611 
-75.0016 -151.182 17.611 
-58.8853 -137.815 17.7967 
-69.7381 -154.615 17.7967 
-53.6918 -141.139 18.0044 
-64.3966 -158.033 18.0044 
-48.4262 -144.446 18.233 
-58.9897 -161.429 18.233 
-43.0973 -147.732 18.4809 
-53.5248 -164.798 18.4809 
-37.7205 -150.985 18.7465 
-48.0027 -168.14 18.7465 
-32.2993 -154.204 19.0276 
-42.4364 -171.444 19.0276 
-26.8442 -157.381 19.322 
-36.8314 -174.709 19.322 
-21.3595 -160.513 19.6269 
-31.1999 -177.925 19.6269 
-15.8557 -163.594 19.9396 
-25.5474 -181.089 19.9396 
-10.3408 -166.617 20.2571 
-19.8823 -184.195 20.2571 
-4.83196 -169.574 20.5764 
-14.2038 -187.242 20.5764 
0.678093 -172.465 20.8943 
-8.53528 -190.217 20.8943 
6.16632 -175.279 21.2074 
-2.87001 -193.121 21.2074 
11.6324 -178.014 21.513 
2.77601 -195.946 21.513 
17.0647 -180.662 21.8094 
8.39832 -198.687 21.8094 
22.4547 -183.219 22.0945 
13.989 -201.339 22.0945 
27.7972 -185.68 22.3667 
19.5371 -203.895 22.3667 
33.0754 -188.036 22.624 
25.0431 -206.352 22.624 
38.2978 -190.289 22.8649 
30.4821 -208.699 22.8649 
43.4296 -192.423 23.088 
35.8729 -210.94 23.088 
48.4743 -194.437 23.2922 
41.1956 -213.065 23.2922 
53.4302 -196.328 23.4765 
46.4358 -215.065 23.4765 
58.2687 -198.085 23.6406 
51.6054 -216.943 23.6406 
63.0035 -199.711 23.7842 
56.6749 -218.683 23.7842 
67.5981 -201.19 23.9074 
61.6645 -220.289 23.9074 
72.0591 -202.524 24.0107 
66.551 -221.75 24.0107 
76.3835 -203.709 24.0948 
71.3216 -223.058 24.0948 
80.5427 -204.736 24.1608 
75.9882 -224.211 24.1608 
84.5096 -205.598 24.2099 
80.5618 -225.205 24.2099 
88.3043 -206.299 24.2434 
85.0061 -226.025 24.2434 
91.9006 -206.833 24.2631 
89.3311 -226.667 24.2631 
91.891 -206.832 24.2631 
89.3409 -226.668 24.2631 
95.4149 -207.212 24.2707 
93.6539 -227.135 24.2707 
99.0208 -207.46 24.2661 
98.0358 -227.435 24.2661 
102.731 -207.577 24.2486 
102.45 -227.575 24.2486 
106.519 -207.564 24.2173 
106.911 -227.561 24.2173 
110.371 -207.425 24.1717 
111.418 -227.398 24.1717 
114.297 -207.161 24.1112 
115.946 -227.093 24.1112 
118.285 -206.775 24.0356 
120.496 -226.652 24.0356 
122.313 -206.27 23.9446 
125.074 -226.078 23.9446 
126.386 -205.648 23.8385 
129.662 -225.378 23.8385 
130.491 -204.914 23.7173 
134.261 -224.555 23.7173 
134.623 -204.07 23.5817 
138.86 -223.615 23.5817 
138.765 -203.121 23.4322 
143.463 -222.561 23.4322 
142.93 -202.066 23.2699 
148.044 -221.402 23.2699 
147.084 -200.917 23.0957 
152.624 -220.134 23.0957 
151.234 -199.672 22.9109 
157.181 -218.767 22.9109 
155.37 -198.336 22.717 
161.711 -217.304 22.717 
159.48 -196.915 22.5155 
166.214 -215.747 22.5155 
163.569 -195.408 22.3082 
170.669 -214.105 22.3082 
167.618 -193.823 22.0967 
175.084 -212.378 22.0967 
171.617 -192.167 21.883 
179.454 -210.567 21.883 
175.565 -190.44 21.6688 
183.766 -208.681 21.6688 
179.461 -188.643 21.4561 
188.008 -206.725 21.4561 
183.276 -186.791 21.2466 
192.195 -204.693 21.2466 
187.024 -184.879 21.042 
196.3 -202.598 21.042 
190.699 -182.91 20.8441 
200.315 -200.447 20.8441 
194.266 -180.902 20.6542 
204.26 -198.226 20.6542 
197.746 -178.846 20.4739 
208.103 -195.955 20.4739 
201.115 -176.755 20.3042 
211.852 -193.629 20.3042 
204.372 -174.631 20.1462 
215.495 -191.252 20.1462 
207.512 -172.476 20.0008 
219.024 -188.831 20.0008 
210.516 -170.306 19.8687 
222.444 -186.359 19.8687 
213.394 -168.111 19.7502 
225.732 -183.852 19.7502 
216.116 -165.916 19.6457 
228.902 -181.296 19.6457 
218.704 -163.704 19.5554 
231.922 -178.713 19.5554 
221.109 -161.515 19.4791 
234.823 -176.073 19.4791 
223.363 -159.324 19.4167 
237.563 -173.408 19.4167 
225.444 -157.151 19.3679 
240.149 -170.707 19.3679 
227.346 -155.003 19.3322 
242.574 -167.969 19.3322 
229.058 -152.895 19.3092 
244.833 -165.189 19.3092 
230.556 -150.865 19.2983 
246.94 -162.336 19.2983 
231.878 -148.868 19.2989 
248.84 -159.464 19.2989 
232.988 -146.964 19.3103 
250.558 -156.519 19.3103 
233.904 -145.137 19.3319 
252.059 -153.527 19.3319 
234.614 -143.436 19.3631 
253.345 -150.447 19.3631 
235.143 -141.832 19.4034 
254.376 -147.315 19.4034 
235.493 -140.35 19.4523 
255.135 -144.115 19.4523 
235.679 -139.014 19.5092 
255.596 -140.83 19.5092 
235.723 -137.804 19.5738 
255.72 -137.487 19.5738 
235.641 -136.672 19.6458 
255.481 -134.145 19.6458 
235.444 -135.631 19.7251 
254.851 -130.797 19.7251 
235.446 -135.637 19.7251 
254.85 -130.791 19.7251 
235.237 -135.035 19.8145 
253.584 -127.074 19.8145 
234.769 -134.148 19.9166 
251.815 -123.686 19.9166 
233.961 -133.001 20.0304 
249.652 -120.599 20.0304 
232.762 -131.63 20.1554 
247.179 -117.768 20.1554 
231.151 -130.085 20.2907 
244.444 -115.141 20.2907 
229.151 -128.421 20.4357 
241.457 -112.655 20.4357 
226.778 -126.67 20.5894 
238.231 -110.274 20.5894 
224.044 -124.849 20.751 
234.783 -107.977 20.751 
220.986 -122.981 20.9192 
231.108 -105.732 20.9192 
217.614 -121.071 21.0926 
227.224 -103.531 21.0926 
213.961 -119.131 21.2696 
223.131 -101.357 21.2696 
210.039 -117.16 21.4483 
218.844 -99.203 21.4483 
205.876 -115.166 21.6267 
214.368 -97.0585 21.6267 
201.489 -113.148 21.8023 
209.714 -94.9175 21.8023 
196.884 -111.1 21.9728 
204.908 -92.7804 21.9728 
192.096 -109.03 22.1353 
199.944 -90.6345 22.1353 
187.128 -106.931 22.2873 
194.849 -88.4814 22.2873 
182.009 -104.806 22.4258 
189.625 -86.3126 22.4258 
176.745 -102.648 22.5481 
184.295 -84.1282 22.5481 
171.359 -100.46 22.6518 
178.867 -81.9226 22.6518 
165.86 -98.2349 22.7343 
173.362 -79.6951 22.7343 
160.277 -95.9763 22.7935 
167.781 -77.4377 22.7935 
154.611 -93.6763 22.8278 
162.153 -75.1527 22.8278 
148.883 -91.334 22.8357 
156.487 -72.8356 22.8357 
143.111 -88.9472 22.8165 
150.797 -70.4831 22.8165 
137.309 -86.5138 22.7696 
145.096 -68.092 22.7696 
131.486 -84.0275 22.6954 
139.407 -65.6632 22.6954 
125.664 -81.4886 22.5944 
133.739 -63.1908 22.5944 
119.854 -78.8919 22.4678 
128.109 -60.6747 22.4678 
114.074 -76.2354 22.3173 
122.531 -58.1115 22.3173 
108.336 -73.5151 22.145 
117.022 -55.4997 22.145 
102.655 -70.727 21.9533 
111.598 -52.8378 21.9533 
97.045 -67.8675 21.7451 
106.274 -50.1243 21.7451 
91.5215 -64.9329 21.5233 
101.066 -47.3571 21.5233 
86.0967 -61.9178 21.2912 
95.9907 -44.5365 21.2912 
80.787 -58.8187 21.052 
91.0626 -41.6603 21.052 
75.6034 -55.6288 20.8089 
86.3007 -38.73 20.8089 
70.5636 -52.3448 20.5651 
81.7172 -35.7436 20.5651 
65.6805 -48.9596 20.3238 
77.3298 -32.7025 20.3238 
60.9697 -45.4679 20.0879 
73.1527 -29.6069 20.0879 
56.443 -41.8603 19.8599 
69.2043 -26.4606 19.8599 
52.1192 -38.1315 19.6424 
65.4961 -23.2635 19.6424 
48.0133 -34.2726 19.4375 
62.0431 -20.019 19.4375 
44.1411 -30.2733 19.2471 
58.8596 -16.7321 19.2471 
40.5237 -26.1271 19.0727 
55.9549 -13.4039 19.0727 
37.1783 -21.821 18.9155 
53.3416 -10.0419 18.9155 
34.1293 -17.3484 18.7763 
51.0256 -6.64726 18.7763 
31.407 -12.7118 18.6557 
49.0069 -3.21214 18.6557 
29.0316 -7.89646 18.5535 
47.2954 0.25425 18.5535 
27.0353 -2.90968 18.4694 
45.8888 3.76452 18.4694 
27.0354 -2.90995 18.4694 
45.8887 3.76498 18.4694 
25.421 2.29875 18.4008 
44.7372 7.48384 18.4008 
24.1617 7.73628 18.3449 
43.7859 11.595 18.3449 
23.226 13.3894 18.3007 
43.0441 16.0803 18.3007 
22.5866 19.2521 18.267 
42.5174 20.9146 18.267 
22.2209 25.3149 18.2424 
42.2064 26.0758 18.2424 
22.109 31.5707 18.2252 
42.109 31.54 18.2252 
22.2339 38.0124 18.2138 
42.2206 37.2827 18.2138 
22.58 44.631 18.2062 
42.5345 43.2817 18.2062 
23.1332 51.4138 18.2003 
43.0432 49.5185 18.2003 
23.8801 58.3511 18.1938 
43.738 55.9712 18.1938 
24.8081 65.4315 18.1842 
44.6096 62.6201 18.1842 
25.9054 72.6438 18.1691 
45.648 69.4451 18.1691 
27.16 79.9745 18.1457 
46.8431 76.4281 18.1457 
28.5603 87.4094 18.1115 
48.1849 83.5524 18.1115 
30.0948 94.9346 18.0641 
49.6627 90.8001 18.0641 
31.7523 102.537 18.0012 
51.2659 98.1532 18.0012 
33.522 110.204 17.921 
52.9833 105.593 17.921 
35.3926 117.919 17.8218 
54.8045 113.105 17.8218 
37.3528 125.668 17.7029 
56.7187 120.672 17.7029 
39.3916 133.436 17.5636 
58.715 128.277 17.5636 
41.4984 141.208 17.4042 
60.7822 135.904 17.4042 
43.662 148.97 17.2256 
62.9095 143.536 17.2256 
45.8713 156.706 17.029 
65.086 151.157 17.029 
48.1154 164.401 16.8166 
67.301 158.752 16.8166 
50.3832 172.039 16.5907 
69.5433 166.304 16.5907 
52.6638 179.605 16.3542 
71.8021 173.797 16.3542 
54.9463 187.083 16.1103 
74.0664 181.216 16.1103 
57.2193 194.458 15.8623 
76.3257 188.546 15.8623 
59.4725 201.715 15.6133 
78.5683 195.769 15.6133 
61.6943 208.837 15.3668 
80.7839 202.871 15.3668 
63.8732 215.806 15.1256 
82.9621 209.838 15.1256 
65.999 222.61 14.8924 
85.0913 216.653 14.8924 
68.06 229.23 14.6695 
87.1611 223.301 14.6695 
70.045 235.65 14.4587 
89.1609 229.769 14.4587 
71.9435 241.855 14.2615 
91.0793 236.039 14.2615 
73.7434 247.825 14.0788 
92.9063 242.1 14.0788 
75.4334 253.544 13.9112 
94.6316 247.937 13.9112 
77.002 258.991 13.7588 
96.2446 253.539 13.7588 
78.4381 264.15 13.6216 
97.7345 258.892 13.6216 
79.7304 269.002 13.4991 
99.0908 263.984 13.4991 
80.8671 273.522 13.3908 
100.303 268.806 13.3908 
81.8362 277.684 13.2962 
101.362 273.355 13.2962 
82.6272 281.462 13.2146 
102.256 277.625 13.2146 
83.2289 284.814 13.1453 
102.973 281.627 13.1453 
83.635 287.696 13.0879 
103.5 285.373 13.0879 
83.8454 290.041 13.0419 
103.813 288.899 13.0419 
83.8791 291.74 13.007 
103.872 292.283 13.007 
83.8138 292.609 12.9831 
103.577 295.677 12.9831 
83.877 292.44 12.9701 
102.679 299.259 12.9701 
84.6561 291.056 12.9682 
100.568 303.172 12.9682 
3 0 1 2 
3 1 3 2 
3 2 3 4 
3 3 5 4 
3 4 5 6 
3 5 7 6 
3 6 7 8 
3 7 9 8 
3 8 9 10 
3 9 11 10 
3 10 11 12 
3 11 13 12 
3 12 13 14 
3 13 15 14 
3 14 15 16 
3 15 17 16 
3 16 17 18 
3 17 19 18 
3 18 19 20 
3 19 21 20 
3 20 21 22 
3 21 23 22 
3 22 23 24 
3 23 25 24 
3 24 25 26 
3 25 27 26 
3 26 27 28 
3 27 29 28 
3 28 29 30 
3 29 31 30 
3 30 31 32 
3 31 33 32 
3 32 33 34 
3 33 35 34 
3 34 35 36 
3 35 37 36 
3 36 37 38 
3 37 39 38 
3 38 39 40 
3 39 41 40 
3 40 41 42 
3 41 43 42 
3 42 43 44 
3 43 45 44 
3 44 45 46 
3 45 47 46 
3 46 47 48 
3 47 49 48 
3 48 49 50 
3 49 51 50 
3 50 51 52 
3 51 53 52 
3 52 53 54 
3 53 55 54 
3 54 55 56 
3 55 57 56 
3 56 57 58 
3 57 59 58 
3 58 59 60 
3 59 61 60 
3 60 61 62 
3 61 63 62 
3 62 63 64 
3 63 65 64 
3 64 65 66 
3 65 67 66 
3 66 67 68 
3 67 69 68 
3 68 69 70 
3 69 71 70 
3 70 71 72 
3 71 73 72 
3 72 73 74 
3 73 75 74 
3 74 75 76 
3 75 77 76 
3 76 77 78 
3 77 79 78 
3 78 79 80 
3 79 81 80 
3 80 81 82 
3 81 83 82 
3 82 83 84 
3 83 85 84 
3 84 85 86 
3 85 87 86 
3 86 87 88 
3 87 89 88 
3 88 89 90 
3 89 91 90 
3 90 91 92 
3 91 93 92 
3 92 93 94 
3 93 95 94 
3 94 95 96 
3 95 97 96 
3 96 97 98 
3 97 99 98 
3 98 99 100 
3 99 101 100 
3 100 101 102 
3 101 103 102 
3 102 103 104 
3 103 105 104 
3 104 105 106 
3 105 107 106 
3 106 107 108 
3 107 109 108 
3 108 109 110 
3 109 111 110 
3 110 111 112 
3 111 113 112 
3 112 113 114 
3 113 115 114 
3 114 115 116 
3 115 117 116 
3 116 117 118 
3 117 119 118 
3 118 119 120 
3 119 121 120 
3 120 121 122 
3 121 123 122 
3 122 123 124 
3 123 125 124 
3 124 125 126 
3 125 127 126 
3 126 127 128 
3 127 129 128 
3 128 129 130 
3 129 131 130 
3 130 131 132 
3 131 133 132 
3 132 133 134 
3 133 135 134 
3 134 135 136 
3 135 137 136 
3 136 137 138 
3 137 139 138 
3 138 139 140 
3 139 141 140 
3 140 141 142 
3 141 143 142 
3 142 143 144 
3 143 145 144 
3 144 145 146 
3 145 147 146 
3 146 147 148 
3 147 149 148 
3 148 149 150 
3 149 151 150 
3 150 151 152 
3 151 153 152 
3 152 153 154 
3 153 155 154 
3 154 155 156 
3 155 157 156 
3 156 157 158 
3 157 159 158 
3 158 159 160 
3 159 161 160 
3 160 161 162 
3 161 163 162 
3 162 163 164 
3 163 165 164 
3 164 165 166 
3 165 167 166 
3 166 167 168 
3 167 169 168 
3 168 169 170 
3 169 171 170 
3 170 171 172 
3 171 173 172 
3 172 173 174 
3 173 175 174 
3 174 175 176 
3 175 177 176 
3 176 177 178 
3 177 179 178 
3 178 179 180 
3 179 181 180 
3 180 181 182 
3 181 183 182 
3 182 183 184 
3 183 185 184 
3 184 185 186 
3 185 187 186 
3 186 187 188 
3 187 189 188 
3 188 189 190 
3 189 191 190 
3 190 191 192 
3 191 193 192 
3 192 193 194 
3 193 195 194 
3 194 195 196 
3 195 197 196 
3 196 197 198 
3 197 199 198 
3 198 199 200 
3 199 201 200 
3 200 201 202 
3 201 203 202 
3 202 203 204 
3 203 205 204 
3 204 205 206 
3 205 207 206 
3 206 207 208 
3 207 209 208 
3 208 209 210 
3 209 211 210 
3 210 211 212 
3 211 213 212 
3 212 213 214 
3 213 215 214 
3 214 215 216 
3 215 217 216 
3 216 217 218 
3 217 219 218 
3 218 219 220 
3 219 221 220 
3 220 221 222 
3 221 223 222 
3 222 223 224 
3 223 225 224 
3 224 225 226 
3 225 227 226 
3 226 227 228 
3 227 229 228 
3 228 229 230 
3 229 231 230 
3 230 231 232 
3 231 233 232 
3 232 233 234 
3 233 235 234 
3 234 235 236 
3 235 237 236 
3 236 237 238 
3 237 239 238 
3 238 239 240 
3 239 241 240 
3 240 241 242 
3 241 243 242 
3 242 243 244 
3 243 245 244 
3 244 245 246 
3 245 247 246 
3 246 247 248 
3 247 249 248 
3 248 249 250 
3 249 251 250 
3 250 251 252 
3 251 253 252 
3 252 253 254 
3 253 255 254 
3 254 255 256 
3 255 257 256 
3 256 257 258 
3 257 259 258 
3 258 259 260 
3 259 261 260 
3 260 261 262 
3 261 263 262 
3 262 263 264 
3 263 265 264 
3 264 265 266 
3 265 267 266 
3 266 267 268 
3 267 269 268 
3 268 269 270 
3 269 271 270 
3 270 271 272 
3 271 273 272 
3 272 273 274 
3 273 275 274 
3 274 275 276 
3 275 277 276 
3 276 277 278 
3 277 279 278 
3 278 279 280 
3 279 281 280 
3 280 281 282 
3 281 283 282 
3 282 283 284 
3 283 285 284 
3 284 285 286 
3 285 287 286 
3 286 287 288 
3 287 289 288 
3 288 289 290 
3 289 291 290 
3 290 291 292 
3 291 293 292 
3 292 293 294 
3 293 295 294 
3 294 295 296 
3 295 297 296 
3 296 297 298 
3 297 299 298 
3 298 299 300 
3 299 301 300 
3 300 301 302 
3 301 303 302 
3 302 303 304 
3 303 305 304 
3 304 305 306 
3 305 307 306 
3 306 307 308 
3 307 309 308 
3 308 309 310 
3 309 311 310 
3 310 311 312 
3 311 313 312 
3 312 313 314 
3 313 315 314 
3 314 315 316 
3 315 317 316 
3 316 317 318 
3 317 319 318 
3 318 319 320 
3 319 321 320 
3 320 321 322 
3 321 323 322 
3 322 323 324 
3 323 325 324 
3 324 325 326 
3 325 327 326 
3 326 327 328 
3 327 329 328 
3 328 329 330 
3 329 331 330 
3 330 331 332 
3 331 333 332 
3 332 333 334 
3 333 335 334 
3 334 335 336 
3 335 337 336 
3 336 337 338 
3 337 339 338 
3 338 339 340 
3 339 341 340 
3 340 341 342 
3 341 343 342 
3 342 343 344 
3 343 345 344 
3 344 345 346 
3 345 347 346 
3 346 347 348 
3 347 349 348 
3 348 349 350 
3 349 351 350 
3 350 351 352 
3 351 353 352 
3 352 353 354 
3 353 355 354 
3 354 355 356 
3 355 357 356 
3 356 357 358 
3 357 359 358 
3 358 359 360 
3 359 361 360 
3 360 361 362 
3 361 363 362 
3 362 363 364 
3 363 365 364 
3 364 365 366 
3 365 367 366 
3 366 367 368 
3 367 369 368 
3 368 369 370 
3 369 371 370 
3 370 371 372 
3 371 373 372 
3 372 373 374 
3 373 375 374 
3 374 375 376 
3 375 377 376 
3 376 377 378 
3 377 379 378 
3 378 379 380 
3 379 381 380 
3 380 381 382 
3 381 383 382 
3 382 383 384 
3 383 385 384 
3 384 385 386 
3 385 387 386 
3 386 387 388 
3 387 389 388 
3 388 389 390 
3 389 391 390 
3 390 391 392 
3 391 393 392 
3 392 393 394 
3 393 395 394 
3 394 395 396 
3 395 397 396 
3 396 397 398 
3 397 399 398 
3 398 399 400 
3 399 401 400 
3 400 401 402 
3 401 403 402 
3 402 403 404 
3 403 405 404 
3 404 405 406 
3 405 407 406 
3 406 407 408 
3 407 409 408 
3 408 409 410 
3 409 411 410 
3 410 411 412 
3 411 413 412 
3 412 413 414 
3 413 415 414 
3 414 415 416 
3 415 417 416 
3 416 417 418 
3 417 419 418 
3 418 419 420 
3 419 421 420 
3 420 421 422 
3 421 423 422 
3 422 423 424 
3 423 425 424 
3 424 425 426 
3 425 427 426 
3 426 427 428 
3 427 429 428 
3 428 429 430 
3 429 431 430 
3 430 431 432 
3 431 433 432 
3 432 433 434 
3 433 435 434 
3 434 435 436 
3 435 437 436 
3 436 437 438 
3 437 439 438 
3 438 439 440 
3 439 441 440 
3 440 441 442 
3 441 443 442 
3 442 443 444 
3 443 445 444 
3 444 445 446 
3 445 447 446 
3 446 447 448 
3 447 449 448 
3 448 449 450 
3 449 451 450 
3 450 451 452 
3 451 453 452 
3 452 453 454 
3 453 455 454 
3 454 455 456 
3 455 457 456 
3 456 457 458 
3 457 459 458 
3 458 459 460 
3 459 461 460 
3 460 461 462 
3 461 463 462 
3 462 463 464 
3 463 465 464 
3 464 465 466 
3 465 467 466 
3 466 467 468 
3 467 469 468 
3 468 469 470 
3 469 471 470 
3 470 471 472 
3 471 473 472 
3 472 473 474 
3 473 475 474 
3 474 475 476 
3 475 477 476 
3 476 477 478 
3 477 479 478 
3 478 479 480 
3 479 481 480 
3 480 481 482 
3 481 483 482 
3 482 483 484 
3 483 485 484 
3 484 485 486 
3 485 487 486 
3 486 487 488 
3 487 489 488 
3 488 489 490 
3 489 491 490 
3 490 491 492 
3 491 493 492 
3 492 493 494 
3 493 495 494 
3 494 495 496 
3 495 497 496 
3 496 497 498 
3 497 499 498 
3 498 499 500 
3 499 501 500 
3 500 501 502 
3 501 503 502 
3 502 503 504 
3 503 505 504 
3 504 505 506 
3 505 507 506 
3 506 507 508 
3 507 509 508 
3 508 509 510 
3 509 511 510 
3 510 511 512 
3 511 513 512 
3 512 513 514 
3 513 515 514 
3 514 515 516 
3 515 517 516 
3 516 517 518 
3 517 519 518 
3 518 519 520 
3 519 521 520 
3 520 521 522 
3 521 523 522 
3 522 523 524 
3 523 525 524 
3 524 525 526 
3 525 527 526 
3 526 527 528 
3 527 529 528 
3 528 529 530 
3 529 531 530 
3 530 531 532 
3 531 533 532 
3 532 533 534 
3 533 535 534 
3 534 535 536 
3 535 537 536 
3 536 537 538 
3 537 539 538 
3 538 539 540 
3 539 541 540 
3 540 541 542 
3 541 543 542 
3 542 543 544 
3 543 545 544 
3 544 545 546 
3 545 547 546 
3 546 547 548 
3 547 549 548 
3 548 549 550 
3 549 551 550 
3 550 551 552 
3 551 553 552 
3 552 553 554 
3 553 555 554 
3 554 555 556 
3 555 557 556 
3 556 557 558 
3 557 559 558 
3 558 559 560 
3 559 561 560 
3 560 561 562 
3 561 563 562 
3 562 563 564 
3 563 565 564 
3 564 565 566 
3 565 567 566 
3 566 567 568 
3 567 569 568 
3 568 569 570 
3 569 571 570 
3 570 571 572 
3 571 573 572 
3 572 573 574 
3 573 575 574 
3 574 575 576 
3 575 577 576 
3 576 577 578 
3 577 579 578 
3 578 579 580 
3 579 581 580 
3 580 581 582 
3 581 583 582 
3 582 583 584 
3 583 585 584 
3 584 585 586 
3 585 587 586 
3 586 587 588 
3 587 589 588 
3 588 589 590 
3 589 591 590 
3 590 591 592 
3 591 593 592 
3 592 593 594 
3 593 595 594 
3 594 595 596 
3 595 597 596 
3 596 597 598 
3 597 599 598 
3 598 599 600 
3 599 601 600 
3 600 601 602 
3 601 603 602 
3 602 603 604 
3 603 605 604 
3 604 605 606 
3 605 607 606 
3 606 607 608 
3 607 609 608 
3 608 609 610 
3 609 611 610 
3 610 611 612 
3 611 613 612 
3 612 613 614 
3 613 615 614 
3 614 615 616 
3 615 617 616 
3 616 617 618 
3 617 619 618 
3 618 619 620 
3 619 621 620 
3 620 621 622 
3 621 623 622 
3 622 623 624 
3 623 625 624 
3 624 625 626 
3 625 627 626 
3 626 627 628 
3 627 629 628 
3 628 629 630 
3 629 631 630 
3 630 631 632 
3 631 633 632 
3 632 633 634 
3 633 635 634 
3 634 635 636 
3 635 637 636 
3 636 637 638 
3 637 639 638 
3 638 639 640 
3 639 641 640 
3 640 641 642 
3 641 643 642 
3 642 643 644 
3 643 645 644 
3 644 645 646 
3 645 647 646 
3 646 647 648 
3 647 649 648 
3 648 649 650 
3 649 651 650 
3 650 651 652 
3 651 653 652 
3 652 653 654 
3 653 655 654 
3 654 655 656 
3 655 657 656 
3 656 657 658 
3 657 659 658 
3 658 659 660 
3 659 661 660 
3 660 661 662 
3 661 663 662 
3 662 663 664 
3 663 665 664 
3 664 665 666 
3 665 667 666 
3 666 667 668 
3 667 669 668 
3 668 669 670 
3 669 671 670 
3 670 671 672 
3 671 673 672 
3 672 673 674 
3 673 675 674 
3 674 675 676 
3 675 677 676 
3 676 677 678 
3 677 679 678 
3 678 679 680 
3 679 681 680 
3 680 681 682 
3 681 683 682 
3 682 683 684 
3 683 685 684 
3 684 685 686 
3 685 687 686 
3 686 687 688 
3 687 689 688 
3 688 689 690 
3 689 691 690 
3 690 691 692 
3 691 693 692 
3 692 693 694 
3 693 695 694 
3 694 695 696 
3 695 697 696 
3 696 697 698 
3 697 699 698 
3 698 699 700 
3 699 701 700 
3 700 701 702 
3 701 703 702 
3 702 703 704 
3 703 705 704 
3 704 705 706 
3 705 707 706 
3 706 707 708 
3 707 709 708 
3 708 709 710 
3 709 711 710 
3 710 711 712 
3 711 713 712 
